M48
; DRILL file {KiCad 5.1.6} date Sun Jul 12 14:57:29 2020
; FORMAT={-:-/ absolute / inch / decimal}
; #@! TF.CreationDate,2020-07-12T14:57:29-07:00
; #@! TF.GenerationSoftware,Kicad,Pcbnew,5.1.6
FMAT,2
INCH
T1C0.0157
T2C0.0236
T3C0.0374
T4C0.0394
T5C0.0256
T6C0.1260
%
G90
G05
T1
X5.6614Y-3.0315
X5.7165Y-3.2047
X5.8425Y-3.2992
X5.874Y-3.2598
X5.9055Y-3.2972
X5.9094Y-3.2047
X5.935Y-3.2677
X5.9921Y-3.3465
X6.0472Y-3.0787
X6.0512Y-3.2362
X6.0827Y-3.1102
X6.2598Y-3.0807
X6.2598Y-3.3366
X6.5453Y-3.2972
X6.7618Y-3.2776
T3
X5.7087Y-4.0945
X5.8071Y-4.0945
X5.9055Y-4.0945
X6.565Y-4.685
X6.6634Y-4.685
X6.7618Y-4.685
X6.8602Y-4.685
X5.7087Y-4.3701
X5.8071Y-4.3701
X5.9055Y-4.3701
X5.7087Y-3.5433
X5.8071Y-3.5433
X5.9055Y-3.5433
X6.6142Y-4.0945
X6.7126Y-4.0945
X6.811Y-4.0945
X6.1614Y-3.5433
X6.2598Y-3.5433
X6.3583Y-3.5433
X6.6142Y-3.8189
X6.7126Y-3.8189
X6.811Y-3.8189
X6.1614Y-3.8189
X6.2598Y-3.8189
X6.3583Y-3.8189
X6.0138Y-4.685
X6.1122Y-4.685
X6.2106Y-4.685
X6.3091Y-4.685
X6.6142Y-3.5433
X6.7126Y-3.5433
X6.811Y-3.5433
X6.1614Y-4.0945
X6.2598Y-4.0945
X6.3583Y-4.0945
X5.7087Y-3.8189
X5.8071Y-3.8189
X5.9055Y-3.8189
X6.1614Y-4.3701
X6.2598Y-4.3701
X6.3583Y-4.3701
X6.6142Y-4.3701
X6.7126Y-4.3701
X6.811Y-4.3701
T4
X5.6594Y-4.685
X5.7579Y-4.685
T5
X6.5594Y-3.1556
X6.787Y-3.1556
T6
X5.3937Y-4.7047
X7.126Y-4.7047
X5.3937Y-3.0906
X7.126Y-3.0906
T2
G00X6.5031Y-3.0237
M15
G01X6.5031Y-3.0001
M16
G05
G00X6.5031Y-3.1981
M15
G01X6.5031Y-3.1548
M16
G05
G00X6.8433Y-3.0237
M15
G01X6.8433Y-3.0001
M16
G05
G00X6.8433Y-3.1981
M15
G01X6.8433Y-3.1548
M16
G05
T0
M30
